<svg class="icon" viewBox="0 0 1024 1024" xmlns="http://www.w3.org/2000/svg" width="200" height="200"><path d="M942.974 203.24c3.541-6.385 5.422-13.006 5.422-19.8 0-52.162-109.947-94.45-245.572-94.45-135.623 0-245.57 42.288-245.57 94.45 0 6.793 1.88 13.414 5.423 19.8-3.201 1.513-5.423 4.761-5.423 8.536V368.3c-38.17-9.399-83.544-14.848-132.23-14.848-135.623 0-245.567 42.287-245.567 94.45 0 6.792 1.88 13.414 5.421 19.8-3.2 1.51-5.421 4.76-5.421 8.535v377.8a9.43 9.43 0 0 0 4.084 7.773c21.045 43.94 121.15 77.232 241.484 77.232 120.335 0 220.441-33.291 241.485-77.233a9.43 9.43 0 0 0 4.085-7.772v-62.077c38.168 9.4 83.541 14.852 132.23 14.852 120.335 0 220.444-33.292 241.487-77.234a9.429 9.429 0 0 0 4.083-7.77V211.774c.001-3.774-2.22-7.023-5.421-8.534zm-617.95 187.99c114.761 0 207.79 25.373 207.79 56.67 0 31.299-93.03 56.67-207.79 56.67-114.758 0-207.787-25.371-207.787-56.67 0-31.297 93.029-56.67 207.788-56.67zM117.238 498.25c43.494 26.497 120.29 44.101 207.788 44.101s164.295-17.604 207.789-44.101v81.88c0 31.3-93.03 56.67-207.79 56.67-114.758 0-207.787-25.37-207.787-56.67v-81.88zm0 132.23c43.494 26.497 120.29 44.1 207.788 44.1s164.295-17.603 207.789-44.1v81.88c0 31.3-93.03 56.67-207.79 56.67-114.758 0-207.787-25.37-207.787-56.67v-81.88zm207.788 270.78c-114.76 0-207.788-25.37-207.788-56.67v-81.88c43.494 26.497 120.29 44.101 207.788 44.101s164.295-17.604 207.789-44.101v81.88c0 31.3-93.029 56.67-207.79 56.67zM910.614 712.36c0 31.3-93.031 56.67-207.79 56.67-50.233 0-96.303-4.862-132.23-12.953V659.72c38.17 9.403 83.538 14.86 132.23 14.86 87.497 0 164.295-17.602 207.79-44.1v81.88zm0-132.23c0 31.3-93.031 56.67-207.79 56.67-50.233 0-96.303-4.861-132.23-12.953v-96.356c38.17 9.402 83.538 14.86 132.23 14.86 87.497 0 164.295-17.603 207.79-44.1v81.88zm0-132.23c0 31.299-93.031 56.67-207.79 56.67-50.233 0-96.303-4.862-132.23-12.953v-15.382c0-3.775-2.219-7.024-5.421-8.535 3.542-6.385 5.422-13.007 5.422-19.799 0-26.784-28.994-50.963-75.56-68.151v-13.73c43.494 26.498 120.292 44.1 207.79 44.1s164.294-17.602 207.789-44.1v81.88zm0-132.23c0 31.3-93.031 56.67-207.79 56.67s-207.79-25.37-207.79-56.67V233.79c43.495 26.498 120.293 44.101 207.79 44.101s164.295-17.603 207.79-44.1v81.88zm-207.79-75.56c-114.759 0-207.79-25.372-207.79-56.67s93.031-56.669 207.79-56.669 207.79 25.373 207.79 56.67-93.031 56.67-207.79 56.67z"/></svg>